# xmcd
#
# Track frame offsets: 
#        150
#        15730
#        32735
#        53573
#        69624
#        83794
#        106613
#        124659
#        141330
#        159923
#        178684
#
# Disc length: 2686 seconds
#
# Revision: 0
# Processed by: cddbd v1.5.2PL0 Copyright (c) Steve Scherf et al.
# Submitted via: ExactAudioCopyFreeDBPlugin 1.0
#
DISCID=860a7c0b
DTITLE=Janiva Magness - Original
DYEAR=2014
DGENRE=Blues
TTITLE0=Let Me Brathe
TTITLE1=Twice As Strong
TTITLE2=When You Were My King
TTITLE3=I Need A Man
TTITLE4=Everything Is Alright
TTITLE5=With Love
TTITLE6=Mountain
TTITLE7=Who Am I
TTITLE8=Badass
TTITLE9=The Hard Way
TTITLE10=Standing
EXTD=
EXTT0=
EXTT1=
EXTT2=
EXTT3=
EXTT4=
EXTT5=
EXTT6=
EXTT7=
EXTT8=
EXTT9=
EXTT10=
PLAYORDER=
